<svg width="138" height="154" viewBox="0 0 138 154" fill="none" xmlns="http://www.w3.org/2000/svg">
<path d="M62.4131 71.7146C40.7049 77.5293 21.3226 84.5069 0.777288 95.7487C0.648073 98.7206 0.312113 104.742 0.00199556 105.052C-0.385651 105.44 55.8231 83.7316 63.9637 82.5687C65.1266 90.3216 73.2672 134.901 83.7336 153.12C84.8966 151.957 88.3854 148.856 89.5483 148.469C90.3236 143.817 77.5313 91.0969 75.9807 79.0799C93.4248 73.6528 130.639 63.7291 136.841 61.2481C137.1 59.5683 137.539 55.8986 137.229 54.6581C127.538 53.8829 79.0819 65.5123 74.0425 67.8381C70.166 44.5793 72.1042 4.26411 69.3907 0C67.5817 0.516862 63.576 1.62812 62.0254 1.93823C59.3119 9.30352 60.0872 53.8829 62.4131 71.7146Z" fill="#0C1017"/>
<path fill-rule="evenodd" clip-rule="evenodd" d="M101.565 48.8433C110.557 48.8433 118.622 40.7027 118.622 27.5228C118.622 15.9618 110.557 6.58984 101.565 6.58984C92.5735 6.58984 84.5089 15.9618 84.5089 27.5228C84.5089 39.0837 90.7113 48.8433 101.565 48.8433ZM101.565 37.6016C105.419 37.6016 108.543 33.0891 108.543 27.5227C108.543 21.9564 105.419 17.4439 101.565 17.4439C97.7117 17.4439 94.5877 21.9564 94.5877 27.5227C94.5877 33.0891 97.7117 37.6016 101.565 37.6016Z" fill="#225577"/>
<path fill-rule="evenodd" clip-rule="evenodd" d="M41.8678 147.306C50.8596 147.306 58.9243 139.165 58.9243 125.985C58.9243 114.424 50.8596 105.052 41.8678 105.052C32.876 105.052 24.8114 114.424 24.8114 125.985C24.8114 137.546 31.0137 147.306 41.8678 147.306ZM41.8678 136.064C45.7214 136.064 48.8454 131.552 48.8454 125.985C48.8454 120.419 45.7214 115.906 41.8678 115.906C38.0141 115.906 34.8901 120.419 34.8901 125.985C34.8901 131.552 38.0141 136.064 41.8678 136.064Z" fill="#225577"/>
<path d="M31.789 34.8882C30.8586 35.5084 25.199 41.0905 22.4855 44.967C19.7719 41.4782 13.9573 36.0511 13.182 35.6635C12.7943 35.6635 10.0808 38.377 8.91785 39.5399C9.53808 42.0209 14.8618 49.1019 17.4461 52.3323C15.8955 54.2705 11.2437 63.574 10.0808 66.6752C11.2437 67.8381 16.2831 70.9393 18.2214 72.1022C20.1596 70.5517 24.8114 62.0234 25.9743 60.8605C26.7496 61.6358 35.2778 66.2875 37.216 66.6752L41.8678 62.0234C40.6273 60.4729 34.5025 54.6582 31.4013 52.3323C32.9519 50.394 36.0531 44.1917 37.6037 39.9276C37.6037 39.6175 33.7272 36.0511 31.789 34.8882Z" fill="#E45651"/>
<path d="M121.335 86.4453C120.405 87.0655 114.745 92.6477 112.032 96.5241C109.318 93.0353 103.504 87.6083 102.728 87.2206C102.341 87.2206 99.6271 89.9341 98.4642 91.0971C99.0844 93.578 104.408 100.659 106.992 103.889C105.442 105.828 100.79 115.131 99.6271 118.232C100.79 119.395 105.829 122.496 107.768 123.659C109.706 122.109 114.358 113.581 115.521 112.418C116.296 113.193 124.824 117.845 126.762 118.232L131.414 113.581C130.174 112.03 124.049 106.215 120.948 103.889C122.498 101.951 125.599 95.7488 127.15 91.4847C127.15 91.1746 123.274 87.6083 121.335 86.4453Z" fill="#E45651"/>
</svg>
